<?xml version="1.0" encoding="UTF-8" standalone="no"?>
<!-- Created with Inkscape (http://www.inkscape.org/) -->

<svg
        width="256"
        height="256"
        viewBox="0 0 256 256"
        version="1.1"
        id="svg5"
        xmlns="http://www.w3.org/2000/svg"
>
    <defs
            id="defs2"/>
    <g
            id="layer1">
        <path
                id="path31"
                style="fill:#ffffff;fill-opacity:1;fill-rule:evenodd"
                d="m 212.43177,42.704303 a 17.282425,17.282425 0 0 0 -0.54688,0.03906 H 43.71302 a 17.282425,17.282425 0 0 0 -0.154297,-0.0039 17.282425,17.282425 0 0 0 -0.05469,0.0039 h -0.01953 v 0.002 a 17.282425,17.282425 0 0 0 -17.208984,17.277344 17.282425,17.282425 0 0 0 17.208984,17.27539 v 0.0059 H 212.3888 v -0.03906 a 17.282425,17.282425 0 0 0 0.043,0.0039 17.282425,17.282425 0 0 0 17.2832,-17.28125 17.282425,17.282425 0 0 0 -17.2832,-17.283203 z"/>
        <path
                id="path31-6"
                style="fill:#ffffff;fill-opacity:1;fill-rule:evenodd"
                d="m 212.43178,110.70487 a 17.282425,17.282425 0 0 0 -0.54688,0.0391 H 43.713014 a 17.282425,17.282425 0 0 0 -0.154297,-0.004 17.282425,17.282425 0 0 0 -0.05469,0.004 h -0.01953 v 0.002 a 17.282425,17.282425 0 0 0 -17.208984,17.27735 17.282425,17.282425 0 0 0 17.208984,17.27539 v 0.006 H 212.38881 v -0.0391 a 17.282425,17.282425 0 0 0 0.043,0.004 17.282425,17.282425 0 0 0 17.2832,-17.28125 17.282425,17.282425 0 0 0 -17.2832,-17.28321 z"/>
        <path
                id="path31-6-7"
                style="fill:#ffffff;fill-opacity:1;fill-rule:evenodd"
                d="m 212.43178,178.70165 a 17.282425,17.282425 0 0 0 -0.54688,0.0391 H 43.713011 a 17.282425,17.282425 0 0 0 -0.154297,-0.004 17.282425,17.282425 0 0 0 -0.05469,0.004 h -0.01953 v 0.002 A 17.282425,17.282425 0 0 0 26.27551,196.0201 17.282425,17.282425 0 0 0 43.484494,213.29549 v 0.006 H 212.38881 v -0.0391 a 17.282425,17.282425 0 0 0 0.043,0.004 17.282425,17.282425 0 0 0 17.2832,-17.28125 17.282425,17.282425 0 0 0 -17.2832,-17.28321 z"/>
    </g>
</svg>
